<svg width="147" height="147" viewBox="0 0 147 147" fill="none" xmlns="http://www.w3.org/2000/svg">
<g id="donut personal">
<path id="Subtract" fill-rule="evenodd" clip-rule="evenodd" d="M73.5 147C114.093 147 147 114.093 147 73.5C147 32.9071 114.093 0 73.5 0C32.9071 0 0 32.9071 0 73.5C0 114.093 32.9071 147 73.5 147ZM73 98C86.2548 98 97 87.2548 97 74C97 60.7452 86.2548 50 73 50C59.7452 50 49 60.7452 49 74C49 87.2548 59.7452 98 73 98Z" fill="#E81A4B"/>
<path id="Exclude" fill-rule="evenodd" clip-rule="evenodd" d="M73.1806 36.5012C77.2409 34.8912 79.0605 34.1697 80.5283 26.4635C82.5283 15.9635 122.528 33.4635 115.028 39.9635C107.528 46.4635 98.5283 59.4634 117.028 64.9634C135.528 70.4634 135.028 81.4634 130.528 82.4634C128.414 82.9332 125.417 82.7409 121.797 82.5086C117.711 82.2464 112.83 81.9332 107.528 82.4634C97.5283 83.4634 104.528 104.463 104.528 104.463C104.528 104.463 121.028 132.963 112.528 131.963C109.41 131.597 103.669 128.001 97.3027 124.014C86.3128 117.131 73.4607 109.081 69.0283 114.463C62.0283 122.963 32.0283 130.463 27.0283 122.463C22.0283 114.463 31.5283 96.9634 41.5283 88.9634C51.5283 80.9634 33.0285 67.9634 27.0283 66.4634C21.0281 64.9634 8.02811 46.4634 31.5281 45.4634C50.3281 44.6634 49.028 29.7968 46.028 22.4634C43.6945 19.2968 42.1277 13.7634 54.528 16.9634C60.8008 18.5822 62.7477 24.6874 64.3834 29.8167C65.9811 34.8272 67.282 38.9065 72.028 36.9634C72.4313 36.7983 72.815 36.6461 73.1806 36.5012ZM73.0001 98C86.255 98 97.0001 87.2549 97.0001 74C97.0001 60.7452 86.255 50 73.0001 50C59.7453 50 49.0001 60.7452 49.0001 74C49.0001 87.2549 59.7453 98 73.0001 98Z" fill="#F27D98"/>
<path id="Rectangle 105" d="M105.709 110.452C105.954 109.63 106.885 109.197 107.635 109.613C108.25 109.954 108.472 110.728 108.131 111.343L105.488 116.111C105.147 116.727 104.37 116.95 103.754 116.608C103.004 116.193 102.877 115.175 103.445 114.533C104.542 113.291 105.209 112.128 105.709 110.452Z" fill="#F0F7F7"/>
<path id="Rectangle 107" d="M115.383 54.4782C114.891 53.7761 115.129 52.7772 115.92 52.4469C116.569 52.1762 117.314 52.4825 117.585 53.131L119.685 58.1621C119.956 58.8123 119.649 59.5595 118.999 59.8309C118.208 60.1611 117.331 59.6298 117.179 58.7859C116.886 57.1544 116.387 55.9105 115.383 54.4782Z" fill="#F0F7F7"/>
<path id="Rectangle 113" d="M51.9077 21.3455C52.0038 20.497 52.801 19.8295 53.6099 20.1032C54.2201 20.3096 54.5475 20.9717 54.3411 21.5819L53.3888 24.397C53.1815 25.0096 52.5169 25.3383 51.9042 25.131C51.0949 24.8573 50.8671 23.8478 51.3078 23.1159C51.6393 22.5652 51.8326 22.0082 51.9077 21.3455Z" fill="#F0F7F7"/>
<path id="Rectangle 117" d="M94.7358 40.8299C94.832 39.9814 95.6291 39.3139 96.438 39.5875C97.0483 39.794 97.3756 40.456 97.1692 41.0663L96.2169 43.8813C96.0097 44.494 95.345 44.8226 94.7323 44.6154C93.9231 44.3416 93.6953 43.3321 94.1359 42.6003C94.4674 42.0496 94.6607 41.4926 94.7358 40.8299Z" fill="#F0F7F7"/>
<path id="Rectangle 119" d="M20.7358 44.8299C20.832 43.9814 21.6291 43.3139 22.438 43.5875C23.0483 43.794 23.3756 44.456 23.1692 45.0663L22.2169 47.8813C22.0097 48.494 21.345 48.8226 20.7323 48.6154C19.9231 48.3416 19.6953 47.3321 20.1359 46.6003C20.4674 46.0496 20.6607 45.4926 20.7358 44.8299Z" fill="#F0F7F7"/>
<path id="Rectangle 118" d="M126.736 100.83C126.832 99.9814 127.629 99.3139 128.438 99.5875C129.048 99.794 129.376 100.456 129.169 101.066L128.217 103.881C128.01 104.494 127.345 104.823 126.732 104.615C125.923 104.342 125.695 103.332 126.136 102.6C126.467 102.05 126.661 101.493 126.736 100.83Z" fill="#F0F7F7"/>
<path id="Rectangle 116" d="M17.7358 76.8299C17.832 75.9814 18.6291 75.3139 19.438 75.5875C20.0483 75.794 20.3756 76.456 20.1692 77.0663L19.2169 79.8813C19.0097 80.494 18.345 80.8226 17.7323 80.6154C16.9231 80.3416 16.6953 79.3321 17.1359 78.6003C17.4674 78.0496 17.6607 77.4926 17.7358 76.8299Z" fill="#F0F7F7"/>
<path id="Rectangle 115" d="M113.736 81.8299C113.832 80.9814 114.629 80.3139 115.438 80.5875C116.048 80.794 116.376 81.456 116.169 82.0663L115.217 84.8813C115.01 85.494 114.345 85.8226 113.732 85.6154C112.923 85.3416 112.695 84.3321 113.136 83.6003C113.467 83.0496 113.661 82.4926 113.736 81.8299Z" fill="#F0F7F7"/>
<path id="Rectangle 114" d="M82.7358 114.83C82.832 113.981 83.6291 113.314 84.438 113.588C85.0483 113.794 85.3756 114.456 85.1692 115.066L84.2169 117.881C84.0097 118.494 83.345 118.823 82.7323 118.615C81.9231 118.342 81.6953 117.332 82.1359 116.6C82.4674 116.05 82.6607 115.493 82.7358 114.83Z" fill="#F0F7F7"/>
<path id="Rectangle 112" d="M108.651 22.7257C108.737 21.8725 109.57 21.2714 110.385 21.5379C111.053 21.7563 111.417 22.4749 111.199 23.1428L109.504 28.3246C109.285 28.9943 108.565 29.3597 107.895 29.1407C107.08 28.8742 106.763 27.8992 107.199 27.1611C108.042 25.7339 108.477 24.4661 108.651 22.7257Z" fill="#F0F7F7"/>
<path id="Rectangle 120" d="M100.395 94.7247C100.481 93.8715 101.313 93.2704 102.128 93.5369C102.796 93.7553 103.161 94.4739 102.942 95.1419L101.248 100.324C101.029 100.993 100.309 101.359 99.6388 101.14C98.8238 100.873 98.5067 99.8983 98.9428 99.1601C99.7861 97.733 100.22 96.4652 100.395 94.7247Z" fill="#5BD867"/>
<path id="Rectangle 133" d="M100.395 94.7247C100.481 93.8715 101.313 93.2704 102.128 93.5369C102.796 93.7553 103.161 94.4739 102.942 95.1419L101.248 100.324C101.029 100.993 100.309 101.359 99.6388 101.14C98.8238 100.873 98.5067 99.8983 98.9428 99.1601C99.7861 97.733 100.22 96.4652 100.395 94.7247Z" fill="#5BD867"/>
<path id="Rectangle 134" d="M100.395 94.7247C100.481 93.8715 101.313 93.2704 102.128 93.5369C102.796 93.7553 103.161 94.4739 102.942 95.1419L101.248 100.324C101.029 100.993 100.309 101.359 99.6388 101.14C98.8238 100.873 98.5067 99.8983 98.9428 99.1601C99.7861 97.733 100.22 96.4652 100.395 94.7247Z" fill="#5BD867"/>
<path id="Rectangle 132" d="M85.3951 129.725C85.4807 128.872 86.3134 128.27 87.1285 128.537C87.7965 128.755 88.1609 129.474 87.9425 130.142L86.2482 135.324C86.0292 135.993 85.3086 136.359 84.6389 136.14C83.8238 135.873 83.5067 134.898 83.9429 134.16C84.786 132.733 85.2204 131.465 85.3951 129.725Z" fill="#5BD867"/>
<path id="Rectangle 138" d="M72.3951 103.725C72.4807 102.872 73.3134 102.27 74.1285 102.537C74.7965 102.755 75.1609 103.474 74.9425 104.142L73.2482 109.324C73.0292 109.993 72.3086 110.359 71.6389 110.14C70.8238 109.873 70.5067 108.898 70.9429 108.16C71.786 106.733 72.2204 105.465 72.3951 103.725Z" fill="#F0F7F7"/>
<path id="Rectangle 137" d="M95.3951 19.7249C95.4807 18.8716 96.3134 18.2705 97.1285 18.537C97.7965 18.7555 98.1609 19.4741 97.9425 20.1421L96.2482 25.3236C96.0292 25.9934 95.3086 26.3588 94.6389 26.1398C93.8238 25.8733 93.5067 24.8983 93.9429 24.16C94.786 22.733 95.2204 21.4652 95.3951 19.7249Z" fill="#5BD867"/>
<path id="Rectangle 136" d="M102.197 64.3918C101.743 63.672 101.902 62.6437 102.696 62.3365C103.282 62.1094 103.942 62.4009 104.169 62.9875L105.099 65.3902C105.327 65.9794 105.034 66.6418 104.445 66.8699C103.651 67.1773 102.845 66.5278 102.698 65.689C102.616 65.2226 102.457 64.805 102.197 64.3918Z" fill="#5BD867"/>
<path id="Rectangle 135" d="M133.786 63.1609C133.432 62.3796 133.851 61.442 134.69 61.2641C135.378 61.1183 136.053 61.5574 136.199 62.2449L137.33 67.5777C137.477 68.2671 137.036 68.9445 136.347 69.0907C135.508 69.2686 134.745 68.5839 134.752 67.7265C134.767 66.069 134.507 64.7543 133.786 63.1609Z" fill="#5BD867"/>
<path id="Rectangle 131" d="M38.5541 125.829C37.9596 125.211 38.041 124.187 38.772 123.739C39.3712 123.372 40.1546 123.56 40.522 124.159L43.3716 128.806C43.74 129.407 43.5516 130.193 42.9509 130.561C42.2199 131.009 41.2717 130.619 40.992 129.809C40.4511 128.242 39.7668 127.089 38.5541 125.829Z" fill="#5BD867"/>
<path id="Rectangle 130" d="M113.65 42.8407C113.744 41.9933 114.527 41.3088 115.337 41.5738C115.943 41.7719 116.273 42.4233 116.075 43.0289L115.212 45.6705C115.013 46.2786 114.359 46.6103 113.751 46.4115C112.94 46.1464 112.713 45.1365 113.14 44.3977C113.42 43.912 113.586 43.4175 113.65 42.8407Z" fill="#5BD867"/>
<path id="Rectangle 129" d="M52.3951 45.7247C52.4807 44.8715 53.3133 44.2704 54.1283 44.5369C54.7963 44.7553 55.1607 45.4739 54.9423 46.1419L53.2479 51.3236C53.0289 51.9933 52.3085 52.3587 51.6388 52.1397C50.8238 51.8732 50.5067 50.8983 50.9428 50.1601C51.7861 48.733 52.2205 47.4652 52.3951 45.7247Z" fill="#5BD867"/>
<path id="Rectangle 128" d="M51.4092 104.393C52.1094 103.898 53.1093 104.133 53.4427 104.923C53.7159 105.57 53.4125 106.317 52.765 106.59L47.7423 108.709C47.0931 108.983 46.3448 108.679 46.0708 108.03C45.7374 107.24 46.2653 106.361 47.1086 106.206C48.739 105.907 49.9809 105.403 51.4092 104.393Z" fill="#5BD867"/>
<path id="Rectangle 127" d="M77.1278 11.5635C76.2739 11.4851 75.6657 10.6576 75.9253 9.84037C76.1381 9.17057 76.8535 8.80006 77.5233 9.01282L82.7192 10.6632C83.3908 10.8765 83.7622 11.5939 83.5489 12.2654C83.2893 13.0826 82.3171 13.408 81.5753 12.9781C80.1411 12.147 78.8696 11.7233 77.1278 11.5635Z" fill="#5BD867"/>
<path id="Rectangle 126" d="M131.654 86.6924C131.101 86.0365 131.25 85.0205 132.009 84.6215C132.631 84.2945 133.401 84.5338 133.728 85.1558L136.264 89.9815C136.592 90.6052 136.352 91.3765 135.728 91.7044C134.969 92.1033 134.049 91.6516 133.823 90.8244C133.387 89.2252 132.78 88.0303 131.654 86.6924Z" fill="#5BD867"/>
<path id="Rectangle 125" d="M19.821 96.4991C19.3369 95.7913 19.5865 94.7952 20.3815 94.4741C21.0332 94.2108 21.7748 94.5257 22.038 95.1773L24.0799 100.232C24.3438 100.886 24.0281 101.629 23.3748 101.893C22.5798 102.214 21.7092 101.673 21.5673 100.827C21.293 99.1923 20.8086 97.9428 19.821 96.4991Z" fill="#5BD867"/>
<path id="Rectangle 124" d="M63.6845 30.6539C63.1449 29.9875 63.3135 28.9745 64.0801 28.5903C64.7084 28.2755 65.473 28.5296 65.7878 29.1579L68.2302 34.0319C68.5458 34.6619 68.2911 35.4284 67.6611 35.7441C66.8946 36.1282 65.9832 35.6587 65.7736 34.8273C65.3685 33.2199 64.7851 32.0134 63.6845 30.6539Z" fill="#5BD867"/>
<path id="Rectangle 123" d="M69.3577 130.072C69.0791 129.261 69.5845 128.367 70.4363 128.269C71.1345 128.188 71.7657 128.689 71.8463 129.387L72.4713 134.803C72.5521 135.503 72.0501 136.136 71.3502 136.216C70.4984 136.315 69.803 135.561 69.8909 134.708C70.061 133.06 69.9261 131.726 69.3577 130.072Z" fill="#5BD867"/>
<path id="Rectangle 122" d="M35.3951 32.7247C35.4807 31.8715 36.3133 31.2704 37.1283 31.5369C37.7963 31.7553 38.1607 32.4739 37.9423 33.1419L36.2479 38.3236C36.0289 38.9933 35.3085 39.3587 34.6388 39.1397C33.8238 38.8732 33.5067 37.8983 33.9428 37.1601C34.7861 35.733 35.2205 34.4652 35.3951 32.7247Z" fill="#5BD867"/>
<path id="Rectangle 121" d="M127.395 42.7247C127.481 41.8715 128.313 41.2704 129.128 41.5369C129.796 41.7553 130.161 42.4739 129.942 43.1419L128.248 48.3236C128.029 48.9933 127.309 49.3587 126.639 49.1397C125.824 48.8732 125.507 47.8983 125.943 47.1601C126.786 45.733 127.22 44.4652 127.395 42.7247Z" fill="#5BD867"/>
<path id="Rectangle 111" d="M36.057 71.5212C35.5648 70.8191 35.8029 69.8202 36.5942 69.4899C37.2428 69.2192 37.988 69.5255 38.2587 70.174L40.3586 75.205C40.63 75.8553 40.3229 76.6024 39.6727 76.8738C38.8814 77.2041 38.0046 76.6728 37.853 75.8288C37.5599 74.1973 37.0611 72.9535 36.057 71.5212Z" fill="#F0F7F7"/>
<path id="Rectangle 110" d="M33.057 93.5212C32.5648 92.8191 32.8029 91.8202 33.5942 91.4899C34.2428 91.2192 34.988 91.5255 35.2587 92.174L37.3586 97.205C37.63 97.8553 37.3229 98.6024 36.6727 98.8738C35.8814 99.2041 35.0046 98.6728 34.853 97.8288C34.5599 96.1973 34.0611 94.9535 33.057 93.5212Z" fill="#F0F7F7"/>
<path id="Rectangle 109" d="M58.057 118.521C57.5648 117.819 57.8029 116.82 58.5942 116.49C59.2428 116.219 59.988 116.525 60.2587 117.174L62.3586 122.205C62.63 122.855 62.3229 123.602 61.6727 123.874C60.8814 124.204 60.0046 123.673 59.853 122.829C59.5599 121.197 59.0611 119.953 58.057 118.521Z" fill="#F0F7F7"/>
<path id="Rectangle 108" d="M76.4728 27.5414C75.7185 27.1336 75.4847 26.1337 76.0447 25.4843C76.5037 24.9521 77.3072 24.8928 77.8394 25.3517L81.9678 28.9123C82.5014 29.3725 82.5609 30.1781 82.1007 30.7116C81.5407 31.3609 80.5189 31.2779 80.0058 30.5909C79.0139 29.2628 78.0115 28.3733 76.4728 27.5414Z" fill="#F0F7F7"/>
<path id="Rectangle 106" d="M38.4629 45.6764C38.7082 44.8547 39.6393 44.4218 40.3893 44.8375C41.004 45.1782 41.2261 45.9527 40.8854 46.5674L38.2423 51.3355C37.9007 51.9518 37.1242 52.1745 36.508 51.8329C35.758 51.4172 35.6308 50.3999 36.1986 49.7574C37.2964 48.5153 37.9625 47.3525 38.4629 45.6764Z" fill="#F0F7F7"/>
</g>
</svg>
